<?xml version="1.0" encoding="utf-8"?>
<!-- Generator: Adobe Illustrator 27.1.1, SVG Export Plug-In . SVG Version: 6.00 Build 0)  -->
<svg version="1.1" id="Livello_1" xmlns="http://www.w3.org/2000/svg" xmlns:xlink="http://www.w3.org/1999/xlink" x="0px" y="0px"
	 viewBox="0 0 1367.4 426.9" style="enable-background:new 0 0 1367.4 426.9;" xml:space="preserve">
<style type="text/css">
	.st0{fill:#FFFFFF;}
</style>
<g>
	<g>
		<path class="st0" d="M1122.5,426.9V293.5h35.6v49.2h209.3v35.6h-209.3v48.6H1122.5z M940.5,378.3v-35.6H1087v35.6H940.5z
			 M1051.4,279.8v-48.6H940.5v-35.6h110.9v-49.8h35.6v134H1051.4z M1122.5,231.2v-35.6h244.9v35.6H1122.5z M1220.9,133.4V0h35.6
			v48.6h110.9v35.6h-110.9v49.2H1220.9z M940.5,84.2V48.6h244.9v35.6H940.5z"/>
	</g>
	<g>
		<path class="st0" d="M138.4,52.8c7.5,8.8,9.4,21.4,5.8,37.7c0,0.3-0.1,0.8-0.3,1.6c-0.2,0.8-0.4,1.3-0.5,1.6
			c-1.1,3.4-3.2,5.7-6.2,7c-3,1.3-6.2,1.9-9.8,1.9H89.5l6-14.9c1.1-2.6,1.2-4.8,0.1-6.6c-1.1-1.8-2.9-2.8-5.4-2.8
			c-3.5,0-6.1,0.7-7.7,2c-1.6,1.4-3.1,3.9-4.5,7.6l-26.6,66c-2.1,5.4-2.7,8.9-1.8,10.4c0.9,1.6,2.7,2.3,5.4,2.3c3.1,0,5.7-0.7,7.7-2
			c2-1.3,3.7-3.8,5.1-7.3l6.2-15.3h39c3.3,0,5.7,0.6,7.5,1.9c1.7,1.3,1.9,3.5,0.6,6.8c-0.4,1.1-0.9,2.2-1.4,3.2
			c-0.5,1-1,2.1-1.4,3.2c-4,9.7-7.9,17.4-11.8,23.2c-3.9,5.8-8.2,10.3-12.8,13.3c-4.6,3.1-9.8,5-15.5,6c-5.7,0.9-12.4,1.4-19.9,1.4
			H36.7c-6.1,0-11.9-0.9-17.5-2.7c-5.5-1.8-10-4.8-13.4-9.1c-3.4-4.3-5.3-9.9-5.8-16.9c-0.4-7,1.4-15.8,5.5-26.3l8.1-20.2
			c2.4-6,5-12.5,7.9-19.6c2.8-7.1,5.7-14.1,8.5-21.1c2.7-6.8,6-13,10-18.6c4-5.6,8.6-10.4,13.8-14.4c5.2-4,11.1-7.1,17.5-9.3
			c6.4-2.2,13.3-3.3,20.9-3.3h9.4C118.6,39.6,130.9,44,138.4,52.8z"/>
		<path class="st0" d="M231.7,39.6c9.5,0,17.6,1.4,24.3,4.3c6.7,2.8,11.7,7,15.1,12.6c3.4,5.5,5.1,12.3,5,20.3
			c-0.1,8-2.1,17.1-6.1,27.4c-3.7,9.9-7.3,19.2-11,27.8c-3.6,8.6-7.2,17-10.7,25.2c-4,9.7-7.9,17.4-11.8,23.2
			c-3.9,5.8-8.2,10.3-12.8,13.3c-4.6,3.1-9.8,5-15.5,6c-5.7,0.9-12.4,1.4-19.9,1.4h-21.5c-6.1,0-11.9-0.9-17.5-2.7
			c-5.5-1.8-10-4.8-13.4-9.1c-3.4-4.3-5.3-9.9-5.7-16.9c-0.4-7,1.4-15.8,5.5-26.3l8.1-20.2c2.4-6,5-12.5,7.9-19.6
			c2.8-7.1,5.7-14.1,8.5-21.1c2.7-6.8,6-13,10-18.6c4-5.6,8.6-10.4,13.8-14.4c5.3-4,11.1-7.1,17.5-9.3c6.4-2.2,13.3-3.3,20.9-3.3
			H231.7z M225.5,87.7c1.1-2.6,1.2-4.8,0.1-6.6c-1.1-1.8-2.9-2.8-5.4-2.8c-3.6,0-6.1,0.7-7.7,2c-1.6,1.4-3.1,3.9-4.5,7.6l-26.6,66
			c-2.1,5.4-2.7,8.9-1.8,10.4c0.9,1.6,2.7,2.3,5.4,2.3c3.1,0,5.7-0.7,7.7-2c2-1.3,3.7-3.8,5.1-7.3L225.5,87.7z"/>
		<path class="st0" d="M444.6,42.2l-63.7,156.5h-33.4c-3.5,0-6.6-1.2-9.3-3.6c-2.6-2.4-4.3-5.5-5-9.2l-10.6-64.1l-31.3,76.9h-45.6
			l63.7-156.5h33.4c3.5,0,6.6,1.2,9.3,3.5c2.6,2.3,4.3,5.4,5,9.3l10.6,64.1L399,42.2H444.6z"/>
		<path class="st0" d="M550.4,78.4h-38.1l-49,120.3h-45.6l49-120.3h-37l14.7-36.2h120.7L550.4,78.4z"/>
		<path class="st0" d="M634.9,42.4c8.1,0.7,14.5,2.6,19.4,5.7c4.8,3.1,8.4,7,10.6,11.6c2.3,4.6,3.3,9.7,3,15.1
			c-0.3,5.5-1.5,10.9-3.6,16.3c-2.3,5.7-5,10.5-8.1,14.6c-3.1,4-6.4,7.6-9.9,10.5c-3.5,3-7.1,5.4-10.8,7.3c-3.7,1.9-7.2,3.6-10.6,5
			c6.5,2.1,10.6,6.7,12.1,13.6c1.6,7,0.5,15-3.2,24.3l-13,32.1h-39.8c-1.8,0-3.7-0.7-5.4-2.2c-1.8-1.5-2.1-3.7-1-6.7l14.3-35.1
			c1-2.6,0.9-4.8-0.4-6.6c-1.3-1.8-3.1-2.8-5.5-2.8h-9.2l-21.5,53.4h-47l62.8-156.5h66.8V42.4z M614.9,87.7c1-2.6,1-4.8-0.1-6.6
			c-1.1-1.8-2.8-2.8-5.2-2.8h-8.5l-10,24.5h8.7c2.4,0,4.9-0.9,7.3-2.8c2.5-1.8,4.3-4,5.4-6.6L614.9,87.7z"/>
		<path class="st0" d="M747.1,39.6c9.5,0,17.6,1.4,24.3,4.3c6.7,2.8,11.7,7,15.1,12.6c3.4,5.5,5.1,12.3,5,20.3
			c-0.1,8-2.1,17.1-6.1,27.4c-3.7,9.9-7.3,19.2-11,27.8c-3.6,8.6-7.2,17-10.7,25.2c-4,9.7-7.9,17.4-11.8,23.2
			c-3.9,5.8-8.2,10.3-12.8,13.3c-4.6,3.1-9.8,5-15.5,6c-5.7,0.9-12.4,1.4-19.9,1.4h-21.5c-6.1,0-11.9-0.9-17.5-2.7
			c-5.5-1.8-10-4.8-13.4-9.1c-3.4-4.3-5.3-9.9-5.7-16.9c-0.4-7,1.4-15.8,5.5-26.3l8.1-20.2c2.4-6,5-12.5,7.9-19.6
			c2.8-7.1,5.7-14.1,8.5-21.1c2.7-6.8,6-13,10-18.6c4-5.6,8.6-10.4,13.8-14.4c5.3-4,11.1-7.1,17.5-9.3c6.4-2.2,13.3-3.3,20.9-3.3
			H747.1z M740.9,87.7c1.1-2.6,1.2-4.8,0.1-6.6c-1.1-1.8-2.9-2.8-5.4-2.8c-3.6,0-6.1,0.7-7.7,2c-1.6,1.4-3.1,3.9-4.5,7.6l-26.6,66
			c-2.1,5.4-2.7,8.9-1.8,10.4c0.9,1.6,2.7,2.3,5.4,2.3c3.1,0,5.7-0.7,7.7-2c2-1.3,3.7-3.8,5.1-7.3L740.9,87.7z"/>
		<path class="st0" d="M865.7,162.5L851,198.6h-92.4l63.7-156.5h45.6l-48.8,120.3H865.7z"/>
		<g>
			<path class="st0" d="M307.7,230.8c6,0,11.1,1,15.4,3.1c4.3,2.1,7.7,4.9,10.2,8.5c2.5,3.6,3.9,7.8,4.2,12.7c0.3,4.8-0.7,10-3,15.5
				l-11.9,30.9c-3.4,8.4-9.2,16.5-17.2,24.3c-4.3,4.1-8.6,7.4-13,9.8c-4.4,2.4-9,4.3-13.8,5.5c-4.8,1.3-9.8,2.1-14.8,2.4
				c-5,0.4-10.3,0.5-15.9,0.5h-9.2l-17.9,43.2H174l62.8-156.5H307.7z M283.4,276.3c1.1-2.6,1.2-4.8,0.1-6.6
				c-1.1-1.8-2.9-2.8-5.4-2.8h-8.3l-15.3,37.5h8.5c2.6,0,5.1-0.9,7.6-2.8c2.5-1.8,4.3-4,5.4-6.6L283.4,276.3z"/>
			<path class="st0" d="M416.2,228.2c9.4,0,17.1,0.9,23.3,2.6c6.2,1.7,11,4,14.6,7c3.5,3,6,6.5,7.3,10.4c1.3,4,1.8,8.2,1.4,12.6
				c0,4-0.7,7.8-2.1,11.5l-46.6,115h-46l13.8-35.6h-19.4l-14.3,35.6h-47l51.7-128c2-5.1,4.4-9.4,7.2-12.8c2.1-3,4.7-5.6,7.6-7.9
				c2.9-2.3,6.6-4.2,11-5.7c4.4-1.6,9.7-2.7,15.8-3.5C400.6,228.6,407.9,228.2,416.2,228.2z M411.3,276.3c1.1-2.6,1.2-4.8,0.2-6.6
				c-1-1.8-2.7-2.8-5.1-2.8c-2.6,0-5.1,0.9-7.6,2.8c-2.5,1.8-4.3,4-5.4,6.6l-13.2,32.1h18.5L411.3,276.3z"/>
			<path class="st0" d="M629.3,230.8l-63.7,156.5h-33.4c-3.6,0-6.6-1.2-9.3-3.6c-2.6-2.4-4.3-5.5-5-9.2l-10.6-64.1L476,387.3h-45.6
				l63.7-156.5h33.4c3.5,0,6.6,1.2,9.3,3.5s4.3,5.4,5,9.3l10.6,64.1l31.3-76.9H629.3z"/>
			<path class="st0" d="M756,230.8l-15.8,38.7h-69l-8.5,19.8h55.6l-15.1,37.5h-55.1l-8.3,19.8h69l-16.4,40.7h-115L641,230.8H756z"/>
			<path class="st0" d="M812.4,351.1l-14.7,36.2h-92.4L769,230.8h45.6l-48.8,120.3H812.4z"/>
		</g>
	</g>
</g>
</svg>
