<?xml version="1.0" encoding="utf-8"?>
<!-- Generator: Adobe Illustrator 25.2.0, SVG Export Plug-In . SVG Version: 6.00 Build 0)  -->
<svg version="1.1" id="Livello_1" xmlns="http://www.w3.org/2000/svg" xmlns:xlink="http://www.w3.org/1999/xlink" x="0px" y="0px"
	 viewBox="0 0 310.1 271.5" style="enable-background:new 0 0 310.1 271.5;" xml:space="preserve">
<style type="text/css">
	.st0{fill:#FFFFFF;}
</style>
<g>
	<path class="st0" d="M75.7,95.6c-0.8,0-1.4,0.6-1.4,1.4v43.2c0,0.8,0.6,1.4,1.4,1.4h14.5c0.8,0,1.4-0.6,1.4-1.4V97
		c0-0.8-0.6-1.4-1.4-1.4H75.7z"/>
	<path class="st0" d="M35,166.1L35,166.1c0.8,0,1-0.9,0.4-1.3C21,156.4,11.3,140.8,11.3,123c0-26.5,21.8-48.3,48.3-48.3
		c5,0,9.9,0.8,14.4,2.2c16.2,5.1,28.8,18.5,32.6,35.2c0.1,0.3,0.4,0.5,0.7,0.5h5.2h0.2c0.7,0,1.3,0.4,1.3,0.9v27.2
		c0,0.5-0.6,0.9-1.3,0.9h-7.5c-0.6,0-1.2,0.4-1.4,0.9c-0.3,0.6-0.5,1.2-0.8,1.8c-0.3,0.6-0.1,1.3,0.4,1.7c2.8,2.2,11.6,8.7,17,11.4
		c0.9,0.5,2-0.2,2-1.3v-14.7c0-0.8,0.6-1.4,1.4-1.4h14.5c0.8,0,1.4,0.6,1.4,1.4v21.8v0c0,0.5,0.4,1,0.9,1.1c4.8,1,9.7,1.5,14.7,1.7
		v0h2h17.6c0.8,0,1.4-0.6,1.4-1.4v-6.3c0-0.8,0.6-1.4,1.4-1.4h9.4c0.8,0,1.4,0.6,1.4,1.4v6.3c0,0.8,0.6,1.4,1.4,1.4h37.7
		c0.8,0,1.4-0.6,1.4-1.4v-24.9c0-0.8,0.6-1.4,1.4-1.4h9.4c0.8,0,1.4,0.6,1.4,1.4v24.9c0,0.8,0.6,1.4,1.4,1.4h20.1h2.1V166
		c9.3-0.4,17.9-3.5,25-8.4c0.2-0.1,0.3-0.4,0.3-0.6v-33.8c0-0.8,0.6-1.4,1.4-1.4h9.4c0.8,0,1.4,0.6,1.4,1.4v19.3
		c0,0.7,0.9,1,1.3,0.4c4.4-7.4,6.9-16,6.8-25.3c-0.4-25.5-21.1-46.4-46.6-47c-8.5-0.2-16.4,1.8-23.4,5.5c-1.6-19.8-10-37.6-23-51.1
		c-0.5-0.5-1.4-0.9-2.1-0.9l0,0h-14.5c-0.8,0-1.4-0.6-1.4-1.4V11.7c0-0.5-0.3-1-0.7-1.2c-1.8-1.1-3.7-2-5.6-3c-0.9-0.4-2,0.2-2,1.3
		v56.2c0,0.8-0.6,1.4-1.4,1.4h-14.5c-0.8,0-1.4-0.6-1.4-1.4V2.3c0-0.7-0.5-1.3-1.1-1.4c-2-0.4-4-0.7-6-0.9c-0.8-0.1-1.5,0.6-1.5,1.4
		v44.5c0,0.8-0.6,1.4-1.4,1.4h-14.5c-0.8,0-1.4-0.6-1.4-1.4V1.6c0-0.8-0.7-1.5-1.6-1.4c-1.6,0.2-3.2,0.5-4.8,0.8v0
		c-7.9,1.5-15.5,4.2-22.4,7.8v0.1c-1,0.5-1.9,1-2.9,1.6c-0.4,0.2-0.7,0.7-0.7,1.2v54c0,0.8-0.6,1.4-1.4,1.4H99.2
		c-0.8,0-1.4-0.6-1.4-1.4V26c0-0.6-0.8-0.9-1.2-0.5C87,35.6,79.9,48.2,76.4,62.2C70,59.7,63.2,58.3,56,58.3c-30.4,0-55.5,24.6-56,55
		C-0.4,137.2,14.2,157.7,35,166.1z M262.7,147.6c0,0.8-0.6,1.4-1.4,1.4h-4.8c-0.8,0-1.4-0.6-1.4-1.4v-4.8c0-0.8,0.6-1.4,1.4-1.4h4.8
		c0.8,0,1.4,0.6,1.4,1.4V147.6z M282.8,150.4c0,0.8-0.6,1.4-1.4,1.4h-4.8c-0.8,0-1.4-0.6-1.4-1.4v-4.8c0-0.8,0.6-1.4,1.4-1.4h4.8
		c0.8,0,1.4,0.6,1.4,1.4V150.4z M273.7,94.3c0-0.8,0.6-1.4,1.4-1.4h7.9c0.8,0,1.4,0.6,1.4,1.4v10.2c0,0.8-0.6,1.4-1.4,1.4h-7.9
		c-0.8,0-1.4-0.6-1.4-1.4V94.3z M273.7,114.2c0-0.8,0.6-1.4,1.4-1.4h7.9c0.8,0,1.4,0.6,1.4,1.4v7.9c0,0.8-0.6,1.4-1.4,1.4h-7.9
		c-0.8,0-1.4-0.6-1.4-1.4V114.2z M252.8,84.3c0-0.8,0.6-1.4,1.4-1.4h9.4c0.8,0,1.4,0.6,1.4,1.4v30.4c0,0.8-0.6,1.4-1.4,1.4h-9.4
		c-0.8,0-1.4-0.6-1.4-1.4V84.3z M252.8,123.5c0-0.8,0.6-1.4,1.4-1.4h9.4c0.8,0,1.4,0.6,1.4,1.4v9.4c0,0.8-0.6,1.4-1.4,1.4h-9.4
		c-0.8,0-1.4-0.6-1.4-1.4V123.5z M240.9,124.6c0,0.8-0.6,1.4-1.4,1.4h-9.4c-0.8,0-1.4-0.6-1.4-1.4v-15.4c0-0.8,0.6-1.4,1.4-1.4h9.4
		c0.8,0,1.4,0.6,1.4,1.4V124.6z M228.7,88.4c0-0.8,0.6-1.4,1.4-1.4h9.4c0.8,0,1.4,0.6,1.4,1.4v9.4c0,0.8-0.6,1.4-1.4,1.4h-9.4
		c-0.8,0-1.4-0.6-1.4-1.4V88.4z M210.9,148.6c0,0.8-0.6,1.4-1.4,1.4H206c-0.8,0-1.4-0.6-1.4-1.4v-3.6c0-0.8,0.6-1.4,1.4-1.4h3.6
		c0.8,0,1.4,0.6,1.4,1.4V148.6z M213.8,127.1c0,0.8-0.6,1.4-1.4,1.4h-9.4c-0.8,0-1.4-0.6-1.4-1.4v-9.4c0-0.8,0.6-1.4,1.4-1.4h9.4
		c0.8,0,1.4,0.6,1.4,1.4V127.1z M215.2,90.2c0,0.8-0.6,1.4-1.4,1.4h-12c-0.8,0-1.4-0.6-1.4-1.4v-12c0-0.8,0.6-1.4,1.4-1.4h12
		c0.8,0,1.4,0.6,1.4,1.4V90.2z M199.1,41.6c0-0.8,0.6-1.4,1.4-1.4H215c0.8,0,1.4,0.6,1.4,1.4v17c0,0.8-0.6,1.4-1.4,1.4h-14.5
		c-0.8,0-1.4-0.6-1.4-1.4V41.6z M187.1,131.7c0,0.8-0.6,1.4-1.4,1.4h-7.1c-0.8,0-1.4-0.6-1.4-1.4v-7.1c0-0.8,0.6-1.4,1.4-1.4h7.1
		c0.8,0,1.4,0.6,1.4,1.4V131.7z M173.5,94.3c0-0.8,0.6-1.4,1.4-1.4h14.5c0.8,0,1.4,0.6,1.4,1.4v17c0,0.8-0.6,1.4-1.4,1.4h-14.5
		c-0.8,0-1.4-0.6-1.4-1.4V94.3z M161.1,156c0,0.8-0.6,1.4-1.4,1.4h-7.1c-0.8,0-1.4-0.6-1.4-1.4v-7.1c0-0.8,0.6-1.4,1.4-1.4h7.1
		c0.8,0,1.4,0.6,1.4,1.4V156z M162.2,136.8c0,0.8-0.6,1.4-1.4,1.4h-9.4c-0.8,0-1.4-0.6-1.4-1.4v-9.4c0-0.8,0.6-1.4,1.4-1.4h9.4
		c0.8,0,1.4,0.6,1.4,1.4V136.8z M147.5,67.7c0-0.8,0.6-1.4,1.4-1.4h14.5c0.8,0,1.4,0.6,1.4,1.4v14.5c0,0.8-0.6,1.4-1.4,1.4h-14.5
		c-0.8,0-1.4-0.6-1.4-1.4V67.7z M138.3,117.5c0,0.8-0.6,1.4-1.4,1.4h-12c-0.8,0-1.4-0.6-1.4-1.4v-12c0-0.8,0.6-1.4,1.4-1.4h12
		c0.8,0,1.4,0.6,1.4,1.4V117.5z M139.5,82.1c0,0.8-0.6,1.4-1.4,1.4h-14.5c-0.8,0-1.4-0.6-1.4-1.4V67.7c0-0.8,0.6-1.4,1.4-1.4h14.5
		c0.8,0,1.4,0.6,1.4,1.4V82.1z M122.2,31.1c0-0.8,0.6-1.4,1.4-1.4h14.5c0.8,0,1.4,0.6,1.4,1.4v21.7c0,0.8-0.6,1.4-1.4,1.4h-14.5
		c-0.8,0-1.4-0.6-1.4-1.4V36.9h0V31.1z M97.8,74.6c0-0.6,0.6-1.2,1.4-1.2h14.5c0.8,0,1.4,0.5,1.4,1.2v12c0,0.6-0.6,1.2-1.4,1.2H99.2
		c-0.8,0-1.4-0.5-1.4-1.2V74.6z"/>
	<path class="st0" d="M66.5,82.7c0-0.8-0.6-1.4-1.4-1.4H50.6c-0.8,0-1.4,0.6-1.4,1.4v43.2c0,0.8,0.6,1.4,1.4,1.4h14.5
		c0.8,0,1.4-0.6,1.4-1.4V82.7z"/>
	<path class="st0" d="M66.5,150.5v-17c0-0.8-0.6-1.4-1.4-1.4H50.6c-0.8,0-1.4,0.6-1.4,1.4v17c0,0.8,0.6,1.4,1.4,1.4h14.5
		C65.9,151.9,66.5,151.3,66.5,150.5z"/>
	<path class="st0" d="M54.3,156.7c-0.8,0-1.4,0.6-1.4,1.4v7.1c0,0.8,0.6,1.4,1.4,1.4h7.1c0.8,0,1.4-0.6,1.4-1.4v-7.1
		c0-0.8-0.6-1.4-1.4-1.4H54.3z"/>
	<path class="st0" d="M134.4,164h-7.1c-0.5,0-1,0.3-1.2,0.7c-0.1,0.2-0.2,0.4-0.2,0.7v7.1c0,0.8,0.6,1.4,1.4,1.4h7.1
		c0.8,0,1.4-0.6,1.4-1.4v-7.1c0-0.3-0.1-0.5-0.2-0.7C135.4,164.3,134.9,164,134.4,164z"/>
	<path class="st0" d="M41.4,112.6v-17c0-0.8-0.6-1.4-1.4-1.4H25.5c-0.8,0-1.4,0.6-1.4,1.4v17c0,0.8,0.6,1.4,1.4,1.4H40
		C40.8,114,41.4,113.4,41.4,112.6z"/>
	<path class="st0" d="M37.7,132.3v-7.1c0-0.8-0.6-1.4-1.4-1.4h-7.1c-0.8,0-1.4,0.6-1.4,1.4v7.1c0,0.8,0.6,1.4,1.4,1.4h7.1
		C37.1,133.7,37.7,133.1,37.7,132.3z"/>
	<path class="st0" d="M35.1,143.4h-4.8c-0.8,0-1.4,0.6-1.4,1.4v4.8c0,0.8,0.6,1.4,1.4,1.4h4.8c0.8,0,1.4-0.6,1.4-1.4v-4.8
		C36.5,144.1,35.9,143.4,35.1,143.4z"/>
	<path class="st0" d="M177.5,166.1c-0.8,0-1.4,0.6-1.4,1.4v24.4c0,0.8,0.6,1.4,1.4,1.4h9.4c0.8,0,1.4-0.6,1.4-1.4v-24.4
		c0-0.8-0.6-1.4-1.4-1.4H177.5z"/>
	<path class="st0" d="M153.8,170.3c-0.8,0-1.4,0.6-1.4,1.4v4.8c0,0.8,0.6,1.4,1.4,1.4h4.8c0.8,0,1.4-0.6,1.4-1.4v-4.8
		c0-0.8-0.6-1.4-1.4-1.4H153.8z"/>
	<path class="st0" d="M264.2,184.3v-7.9c0-0.8-0.6-1.4-1.4-1.4H255c-0.8,0-1.4,0.6-1.4,1.4v7.9c0,0.8,0.6,1.4,1.4,1.4h7.9
		C263.6,185.7,264.2,185.1,264.2,184.3z"/>
	<path class="st0" d="M256.5,194.2c-0.8,0-1.4,0.6-1.4,1.4v4.8c0,0.8,0.6,1.4,1.4,1.4h4.8c0.8,0,1.4-0.6,1.4-1.4v-4.8
		c0-0.8-0.6-1.4-1.4-1.4H256.5z"/>
	<path class="st0" d="M240.9,173.4v-5.9c0-0.8-0.6-1.4-1.4-1.4h-9.4c-0.8,0-1.4,0.6-1.4,1.4v5.9c0,0.8,0.6,1.4,1.4,1.4h9.4
		C240.3,174.8,240.9,174.2,240.9,173.4z"/>
	<path class="st0" d="M232.4,188.5c-0.8,0-1.4,0.6-1.4,1.4v4.8c0,0.8,0.6,1.4,1.4,1.4h4.8c0.8,0,1.4-0.6,1.4-1.4v-4.8
		c0-0.8-0.6-1.4-1.4-1.4H232.4z"/>
	<path class="st0" d="M203.1,178.6c-0.8,0-1.4,0.6-1.4,1.4v9.4c0,0.8,0.6,1.4,1.4,1.4h9.4c0.8,0,1.4-0.6,1.4-1.4V180
		c0-0.8-0.6-1.4-1.4-1.4H203.1z"/>
	<path class="st0" d="M123.9,269.5c-2.1-1.3-4-2.8-5.7-4.6c-1.7-1.8-3.1-3.8-4.3-6c-0.3-0.6-1-1-1.6-1h-8.1c-1,0-1.9-0.8-1.9-1.9
		v-11.2h6.5c0.5,0,1-0.5,0.9-1c-0.1-1.3-0.2-2.6-0.2-4c0-2.2,0.1-4.3,0.4-6.4c0.1-0.6-0.4-1.1-0.9-1.1h-6.8v-9.6
		c0-1,0.8-1.9,1.9-1.9h8.7c0.7,0,1.3-0.4,1.6-1c1.1-1.9,2.4-3.7,3.9-5.4c1.6-1.8,3.5-3.3,5.4-4.6c0.2-0.1,0.4-0.4,0.4-0.6
		c0-0.4-0.3-0.8-0.8-0.8H90.4h-2.2H42.7h-2h-12v39.7c0,8.1-2.4,10.5-7,10.5c-2.4,0-4.9-1.4-6.8-4.3c-0.6-0.9-1.9-1.2-2.7-0.5
		l-6.5,5.2c-0.7,0.6-0.9,1.7-0.4,2.5c4.2,6.7,9.9,9.9,18.4,9.9c13.1,0,19.1-10,19.1-22.1v-28.6h15.7v49.5h14v-49.5h15.8v49.5h35.4
		C124.1,270.3,124.3,269.7,123.9,269.5z"/>
	<path class="st0" d="M172.2,258.9c-0.3-0.6-0.9-1-1.6-1H166c-1.5,0-2.8-1.2-2.8-2.8v-39c0-4.1-3.4-7.5-7.5-7.5h-6.5v0.1v61.7H177
		c1,0,1.8-0.8,1.8-1.8c0-0.8-0.3-1.5-0.9-2C175.7,264.4,173.8,261.8,172.2,258.9z"/>
	<path class="st0" d="M275.6,208.6h-8.3c-1,0-1.9,0.8-1.9,1.9v30.8c0,10.9-2,18.8-6.3,24.1c-0.1,0.1-0.2,0.2-0.3,0.3
		c0,2.5,2,4.6,4.6,4.6h12.9c17,0,28.7-9.7,28.7-31.2S293.4,208.6,275.6,208.6z M274.8,258.4c-1,0-1.9-0.8-1.9-1.9v-34.3
		c0-1,0.8-1.9,1.9-1.9c9.4,0,16,4.1,16,18.8S284.2,258.4,274.8,258.4z"/>
	<path class="st0" d="M146.4,208.6H135c-3.5,0-6.9,1-9.8,2.8l-0.1,0c-3.6,2.2-6.6,5.4-9,9.4c-1.9,3.3-3.3,7.1-4.1,11.5
		c-0.4,2.3-0.6,4.8-0.6,7.5c0,1.7,0.1,3.4,0.3,5c0.5,5.1,1.9,9.5,3.8,13.1c2.6,4.7,6.2,8.3,10.4,10.5c0,0,0,0,0,0
		c2.4,1.3,5.2,1.9,7.9,1.9h12.4c0.5,0,0.9-0.4,0.9-0.9l0-12.6c0-0.4-0.4-0.6-0.7-0.4c-2.1,1.4-4.5,2.3-7.3,2.3
		c-8.2,0-13.5-7.1-13.5-19.4c0-12,6.2-19.2,13.7-19.2c2.8,0,5.1,0.9,7.1,2.3c0.3,0.2,0.7,0,0.7-0.4v-12.5
		C147.3,209,146.9,208.6,146.4,208.6z"/>
	<path class="st0" d="M207.6,209.6c-1.6-0.7-3.4-1-5.1-1h-11.9c-1.8,0-3.5,0.3-5.1,1c-9.6,4.2-15.6,14.4-15.6,29.5
		c0,15.2,6.1,25.8,15.9,30.2c1.6,0.7,3.3,1,5.1,1h11.4c1.7,0,3.5-0.3,5.1-1c9.8-4.3,15.9-15,15.9-30.2
		C223.2,224.1,217.2,213.9,207.6,209.6z M196.5,258.7c-7.7,0-12.3-7.6-12.3-19.6c0-12,4.7-19,12.3-19c7.7,0,12.4,7.1,12.4,19
		C209,251.2,204.2,258.7,196.5,258.7z"/>
	<path class="st0" d="M263.5,208.6h-5.5h-6c-1,0-1.9,0.8-1.9,1.9v32.4c0,11.7-3.5,15.9-9.8,15.9c-6.4,0-9.7-4.1-9.7-15.9v-32.4
		c0-1-0.8-1.9-1.9-1.9h-12v4.2c0,0.5,0.2,0.9,0.5,1.3l0.3,0.3c5.1,5.9,7.9,14.5,7.9,24.7c0,7.9-1.6,14.8-4.6,20.3
		c-0.3,0.6-0.3,1.3,0,1.8c1.9,3.4,4.5,6,7.7,7.7c1.8,1,3.9,1.4,5.9,1.4H246c2.1,0,4.2-0.5,6-1.4c2.3-1.2,4.3-2.9,5.9-5.1
		c3.7-5,5.5-12.4,5.5-22.5V208.6z"/>
</g>
</svg>
