<?xml version="1.0" encoding="utf-8"?>
<!-- Generator: Adobe Illustrator 24.2.0, SVG Export Plug-In . SVG Version: 6.00 Build 0)  -->
<svg version="1.1" id="Livello_1" xmlns="http://www.w3.org/2000/svg" xmlns:xlink="http://www.w3.org/1999/xlink" x="0px" y="0px"
	 viewBox="0 0 384.9 59.7" style="enable-background:new 0 0 384.9 59.7;" xml:space="preserve">
<style type="text/css">
	.st0{fill:#ffffff;}
</style>
<g>
	<rect x="5" y="4.2" class="st0" width="44.7" height="8.5"/>
	<polygon class="st0" points="101.1,39.8 81.6,4.2 71.4,4.2 101.1,55.7 130.8,4.2 120.7,4.2 	"/>
	<polygon class="st0" points="285.9,39.8 266.4,4.2 256.2,4.2 285.9,55.7 315.6,4.2 305.4,4.2 	"/>
	<path class="st0" d="M165.7,5c-12.9,0-23.4,10.1-23.4,22.6c0,12.5,10.5,22.6,23.4,22.6c12.9,0,23.4-10.1,23.4-22.6
		C189.1,15.2,178.6,5,165.7,5z M165.7,41.9c-8.1,0-14.7-6.4-14.7-14.2c0-7.9,6.6-14.2,14.7-14.2c8.1,0,14.7,6.4,14.7,14.2
		C180.5,35.5,173.9,41.9,165.7,41.9z"/>
	<polygon class="st0" points="215.1,4 206.5,4 206.4,50.5 251.1,50.5 251.1,42 215.1,42 	"/>
	<polygon class="st0" points="14.4,30.9 41.1,30.9 41.1,22.4 5,22.4 5,50.2 49.7,50.2 49.7,41.7 14.4,41.7 	"/>
	<rect x="336.3" y="4.2" class="st0" width="44.7" height="8.5"/>
	<polygon class="st0" points="345.6,30.9 372.4,30.9 372.4,22.4 336.3,22.4 336.3,50.2 380.9,50.2 380.9,41.7 345.6,41.7 	"/>
</g>
</svg>
